<svg xmlns="http://www.w3.org/2000/svg" width="512" height="512" viewBox="0 0 512 512">
    <rect width="512" height="512" rx="96" fill="#0F2341"/>
    <g>
      <path d="M 393.89 371.70 A 180.00 180.00 0 1 1 393.89 140.30" fill="none" stroke="#FFFFFF" stroke-width="18" stroke-linecap="round"/>
      
      <rect x="190" y="310" width="34" height="88" rx="3" fill="#FFFFFF"/>
      <rect x="238" y="278" width="34" height="120" rx="3" fill="#FFFFFF"/>
      <rect x="286" y="246" width="34" height="152" rx="3" fill="#FFFFFF"/>
    
      <path d="M140 342 C 188 330, 210 285, 208 266 C 206 243, 172 248, 154 268 C 188 214, 248 186, 312 192 C 282 225, 252 236, 230 236 C 260 244, 303 236, 356 188 C 334 232, 291 279, 224 307 C 196 319, 171 330, 140 342 Z" fill="#0A66FF"/>
      <circle cx="235" cy="165" r="22" fill="#0A66FF"/>
      <path d="M178 408 C 255 418, 337 376, 372 270" fill="none" stroke="#0A66FF" stroke-width="22" stroke-linecap="round"/>
      <path d="M370 248 L 405 269 L 374 298 Z" fill="#0A66FF"/>
    </g>
    </svg>